<svg xmlns="http://www.w3.org/2000/svg" xmlns:xlink="http://www.w3.org/1999/xlink" viewBox="0 0 585.62 121.96"><defs><style>.cls-1{fill:url(#linear-gradient);}.cls-2{fill:#fff;}</style><linearGradient id="linear-gradient" y1="60.98" x2="174.23" y2="60.98" gradientUnits="userSpaceOnUse"><stop offset="0.01" stop-color="#c65aa6"/><stop offset="0.12" stop-color="#bb59a6"/><stop offset="0.31" stop-color="#9f55a4"/><stop offset="0.56" stop-color="#7150a2"/><stop offset="0.86" stop-color="#31489f"/><stop offset="1" stop-color="#10449e"/></linearGradient></defs><g id="Layer_2" data-name="Layer 2"><g id="Layer_1-2" data-name="Layer 1"><path class="cls-1" d="M6.39,71.46c-.11-1.93-.17-3.87-.24-5.8C6,62.22,5.9,58.77,5.8,55.33A4.78,4.78,0,0,1,10.15,50a3.68,3.68,0,0,1,1.32-.15h0a18.08,18.08,0,0,1,3.29.13h0a19.79,19.79,0,0,1,3.17.13l2.19,0h10.2a2.83,2.83,0,0,1,.58.11h0a1.64,1.64,0,0,1,.9.15h0a6.71,6.71,0,0,1,4.09,2.12h0a4.79,4.79,0,0,1,1.33,2.42c.42,1.74.91,3.45,1.36,5.17h0L40,64.75a3.9,3.9,0,0,1-1.48,4.77,7.35,7.35,0,0,1-2.72,1.63,23.83,23.83,0,0,1-4.13,1.21h0a28.73,28.73,0,0,1-3.63,1,34.6,34.6,0,0,1-3.87,1.06,37.14,37.14,0,0,1-4,1.06h0a17.8,17.8,0,0,1-3,.74h0a11.89,11.89,0,0,1-2.41.57h0a6.34,6.34,0,0,1-3.29.13A5.85,5.85,0,0,1,6.39,71.46Zm38.75,7.73h0a7.15,7.15,0,0,0-1.46-2.52,2.71,2.71,0,0,0-2.39-1.07h0a12.3,12.3,0,0,0-4,.9h0a49.74,49.74,0,0,0-5.82,1.84h0l-3.72,1.33h0l-4,1.34h0a30.36,30.36,0,0,0-3.44,1.3A22.61,22.61,0,0,0,17,83.71a19.59,19.59,0,0,0-2.52,1.34h0a17.52,17.52,0,0,0-3.29,2.24,10.31,10.31,0,0,0-4,8.18c.06,5.14.4,10.26.66,15.39.13,2.55.34,5.1.56,7.65A3.46,3.46,0,0,0,11.77,122h0a6.27,6.27,0,0,0,3.29-.72h0a7.35,7.35,0,0,0,2.07-1h0a15.1,15.1,0,0,0,3.41-2.53h0c.5-.18.77-.65,1.19-1a19.78,19.78,0,0,0,2.84-2.33,37.23,37.23,0,0,0,3.56-2.84,38.65,38.65,0,0,0,3.43-2.69h0l6-4.58,3.88-2.83h0L44.88,99h0l1-.77a14.91,14.91,0,0,0,4.52-5,3.64,3.64,0,0,0-.14-3.86A85.18,85.18,0,0,1,45.14,79.19Zm4.19-46.37-4.57-1.21a17.16,17.16,0,0,0-3-.73l-.14-.05a4.35,4.35,0,0,0-1.83-.08A1.83,1.83,0,0,0,38,33.28c.78,2.85,1.58,5.71,2.37,8.56a3,3,0,0,0,.74,1.43,6.87,6.87,0,0,0,3.44,2.35h0a15.12,15.12,0,0,0,4.76.78,14.44,14.44,0,0,0,2.53.3h0l3.88.57,3.28.59a5.62,5.62,0,0,0,2.41.2c1.2-.19,1.58-.84,1.14-1.94-.07-.19-.17-.36-.25-.54-1-2.11-2-4.23-3-6.34a3.59,3.59,0,0,0-.08-.35,7.43,7.43,0,0,0-3.54-3.67h0a9.51,9.51,0,0,0-3.64-1.52,11.87,11.87,0,0,0-2.4-.73h0A2.41,2.41,0,0,0,49.33,32.82Zm2.83,34a8.72,8.72,0,0,0,3.77-.1,23.78,23.78,0,0,0,3.25-.47l3.13-.32,3.13-.27a26.47,26.47,0,0,0,3.45-.13,7.27,7.27,0,0,0,2.37-.17c1.57-.41,1.91-1.3,1-2.62L69,57.88h0c-.45-.78-.9-1.57-1.36-2.35a5.84,5.84,0,0,0-2.18-2.15,7.82,7.82,0,0,0-3.13-1.49h0a8.66,8.66,0,0,0-2.52-.44h0A23.2,23.2,0,0,0,56.09,51h0a17.24,17.24,0,0,0-3.28-.29h0a23.74,23.74,0,0,0-3.47-.26,7.47,7.47,0,0,0-3.45.3,2.59,2.59,0,0,0-1.75,3.36c1.08,3.29,2.24,6.55,3.53,9.77a3.39,3.39,0,0,0,1.67,1.9,5.88,5.88,0,0,0,2.82,1ZM49.81,19.52a4.37,4.37,0,0,0-1.18-.77,31.83,31.83,0,0,0-3.87-1.6h0A21,21,0,0,0,41.6,16h0a29,29,0,0,0-4-1.34,5.78,5.78,0,0,0-2.9-.47c-1.28.1-1.7.71-1.36,1.93.6,2.15,1.22,4.29,1.8,6.45a4.94,4.94,0,0,0,2.32,3,9.37,9.37,0,0,0,3.87,1.77l3.42.94h0l4.63,1.45a34.88,34.88,0,0,0,4.44,1.45,1.5,1.5,0,0,0,1.58-.39c.37-.46.12-.94-.06-1.4-.77-2-1.57-4-2.3-6a7.59,7.59,0,0,0-3.19-3.78ZM11.47,22.07l3.29.31h0l2.23.28h0l3.42.45h0l3.89.59A6.67,6.67,0,0,0,28,23.58a1.59,1.59,0,0,0,1.16-2.14c-.53-2.06-1.14-4.11-1.6-6.18a4.33,4.33,0,0,0-2.84-3.15A10.34,10.34,0,0,0,20.45,11a16.39,16.39,0,0,0-3.28-.28l-.11,0a10.41,10.41,0,0,0-2.3-.11h-.87a33.18,33.18,0,0,0-5.55,0h0a19.79,19.79,0,0,0-5.14.65A5.91,5.91,0,0,0,.14,12.85H0v.75l.06,0H.12c.61,1.75,1.19,3.51,1.65,5.32a1.81,1.81,0,0,0,.89,1A11,11,0,0,0,7.3,21.63,25.43,25.43,0,0,0,11.47,22.07Zm-4.32,20h0a8.33,8.33,0,0,0,4,1.76,34.57,34.57,0,0,0,4.31.43h0l1.94.14h0l2.84.17h0l1,0a2.22,2.22,0,0,0,1.08.11h0l2.83.15,3.28.14a6.17,6.17,0,0,0,2.73-.24l.57-.16a2.78,2.78,0,0,0,2.06-3.54c-.38-1.64-.75-3.28-1.16-4.92a27.39,27.39,0,0,0-1.39-5.11h0A6.6,6.6,0,0,0,28,28.49h0a7.57,7.57,0,0,0-3.26-.89h0A34,34,0,0,0,20.62,27a16.92,16.92,0,0,0-3.16-.43,1.28,1.28,0,0,0-.3-.07,10.37,10.37,0,0,0-2.09-.23h0a27.45,27.45,0,0,0-3.74-.43h0a11.15,11.15,0,0,0-4-.15,5.41,5.41,0,0,0-2.67.81,2,2,0,0,0-1,2.12c.46,3.09.83,6.19,1.06,9.31A5.21,5.21,0,0,0,7.15,42.09Zm66.79,9.79,5.06,2c1.26.56,2.52,1.13,3.79,1.68a2.22,2.22,0,0,0,.72.16c.52.06.68-.2.51-.67a2.65,2.65,0,0,0-.27-.53c-1.54-2.34-3.08-4.69-4.63-7a13,13,0,0,0-4.9-4.18A37.17,37.17,0,0,0,70.05,41a30.76,30.76,0,0,0-4.83-2.26,1.3,1.3,0,0,0-1.47.16c-.45.47-.14,1,.09,1.45,1.14,2.3,2.29,4.61,3.46,6.9a6,6,0,0,0,2,2.23h0A12,12,0,0,0,73.94,51.88Zm14.3,15.85,3.73,1a18.28,18.28,0,0,0,2.6.83c.33.08.74.22,1-.15s-.09-.61-.31-.84c-.92-1-1.86-2-2.79-3-1.1-1.3-2.2-2.58-3.29-3.88a2.43,2.43,0,0,0-.72-.6h0a11.72,11.72,0,0,0-3.75-2.68,1,1,0,0,0-.59-.27h0a.11.11,0,0,0-.12,0h0a38.22,38.22,0,0,0-4.94-2,32.84,32.84,0,0,0-5-1.64,2,2,0,0,0-1,0,.82.82,0,0,0-.66,1.12,2.62,2.62,0,0,0,.36.8q2.22,3.45,4.71,6.7A5.2,5.2,0,0,0,79,64.7h0a12.26,12.26,0,0,0,4.91,2.09h0ZM65.43,36.28l3.89,2L73.94,41a2.62,2.62,0,0,0,.83.31c.48.08.74-.1.56-.63a4.78,4.78,0,0,0-.26-.62Q73.51,37,71.94,33.9a9.45,9.45,0,0,0-2.14-2.73h0a13.09,13.09,0,0,0-3.42-2.68h0a34.71,34.71,0,0,0-3.73-2.39h0a22.41,22.41,0,0,0-4.33-2.42,1.06,1.06,0,0,0-1.19.13c-.34.35-.12.76,0,1.11.88,2.18,1.77,4.36,2.69,6.53a6.63,6.63,0,0,0,2.29,2.77,10.15,10.15,0,0,0,3.29,2.06Zm18.75,6.24a47.79,47.79,0,0,0-4.89-4.32,24.83,24.83,0,0,0-3.42-2.71c-.21-.13-.48-.26-.69-.09s-.1.48,0,.68c1.16,2.29,2.29,4.59,3.66,6.77h0a16.41,16.41,0,0,0,5.07,4.78L90,52.24a2,2,0,0,0,.45.26c.13.06.27.19.4,0s0-.28,0-.41a5.14,5.14,0,0,0-.29-.51c-1.21-2-2.42-3.92-3.66-5.86A15.78,15.78,0,0,0,84.18,42.52ZM54,16.76a6.29,6.29,0,0,0,1.8,2.49h0A11.26,11.26,0,0,0,59,21.67h0l3.13,1.94,3.29,2.19a10.12,10.12,0,0,0,2.29,1.49c.23.1.53.27.76,0a.64.64,0,0,0,0-.7l-2.76-6.14h0a11,11,0,0,0-3.31-3.87h0a22,22,0,0,0-3.08-2.27A23.67,23.67,0,0,0,56,12.12a10.36,10.36,0,0,0-3.09-1.82c-.35-.14-.75-.26-1.05,0s-.12.69,0,1ZM71.71,29a10.41,10.41,0,0,0,2.22,2.94A45.53,45.53,0,0,0,78.54,36c.59.53,1.17,1.07,1.77,1.59.78.69,1.57,1.37,2.36,2,.15.12.36.3.54.17s0-.43-.06-.59c-1.4-2.45-2.41-5.11-4.05-7.42h0a27.25,27.25,0,0,0-4.91-5.21,40.31,40.31,0,0,0-4.34-3.92c-.25-.19-.57-.46-.87-.21s0,.56.1.81C69.94,25.18,70.8,27.1,71.71,29Zm49.65,53.11a39.16,39.16,0,0,0-5.67-3h0a18.7,18.7,0,0,0-3-1.19h0l-6-2.35a3.58,3.58,0,0,0-.65-.14c-.12,0-.29,0-.35.07a.33.33,0,0,0,.07.4,3.24,3.24,0,0,0,.36.38,60,60,0,0,0,6.25,4.51h0a13.57,13.57,0,0,0,3.13,1.81,19.44,19.44,0,0,0,5.67,1.9,46.77,46.77,0,0,0,7.75,1.39c-2.53-1.29-5.09-2.48-7.58-3.82Zm-22.23-12a16.7,16.7,0,0,0,5.36,3.27h0l7.76,3.34a.76.76,0,0,0,.69,0,2.56,2.56,0,0,0-.79-.84c-.84-.7-1.68-1.39-2.53-2.07-1.72-1.37-3.18-3-5-4.34-.11-.1-.21-.21-.32-.3a30.52,30.52,0,0,0-5.19-3.29,60.36,60.36,0,0,0-5.51-3.06c-.24-.12-.62-.39-.87,0s.08.58.26.79A65.61,65.61,0,0,0,99.13,70.1Zm-13.65-29a15.87,15.87,0,0,0,2.75,3.67h0c2.22,2.34,4.54,4.58,6.91,6.77,0,.06.15.14.34-.07-2.34-3.43-4-7.36-7.11-10.31a77.37,77.37,0,0,0-5.29-5.72.49.49,0,0,0-.55-.2,1.8,1.8,0,0,0,.32.95C83.72,37.86,84.59,39.5,85.48,41.13Zm87.77,35.75c-2.65,1.05-5.28,2.12-8,2.94-2,.6-3.93,1.17-5.89,1.76s-3.82,1-5.73,1.55c-1,.26-2.05.47-3.07.71a7.91,7.91,0,0,0,2.66,0,42,42,0,0,0,6.3-1,5.77,5.77,0,0,0,.58-.08,37.44,37.44,0,0,0,10.76-4.14l3.38-1.87A1.94,1.94,0,0,0,173.25,76.88Zm-63,4.22c-1.73-1.24-3.48-2.46-5.23-3.7a25.93,25.93,0,0,0-5.61-4h0a15.3,15.3,0,0,0-4.92-1.82h0A10.06,10.06,0,0,0,92.3,71h0a24.56,24.56,0,0,0-4-.87,8.93,8.93,0,0,0-2.71-.39c-.49,0-1,.09-1.24.65s.16.92.48,1.25a39.57,39.57,0,0,0,3.47,3.25A32.71,32.71,0,0,0,92,78a6.75,6.75,0,0,0,2.51,1.26h0a15.86,15.86,0,0,0,5.08,1.12l4.92.6,5.46,1c.27,0,.62.12.75-.13S110.51,81.27,110.28,81.1ZM94.78,57.88a15.2,15.2,0,0,0-2.54-2.53,30.31,30.31,0,0,0-3.81-2.86A53.06,53.06,0,0,0,84,49.33a3.37,3.37,0,0,0-.61-.28c-.16,0-.33-.12-.49,0s-.08.38,0,.55a7.14,7.14,0,0,0,.5.9c.94,1.43,1.87,2.86,2.85,4.26a12.3,12.3,0,0,0,2.05,2.61A14.72,14.72,0,0,0,92,60.32h0l2.54,1.47h0a63.05,63.05,0,0,0,6,3.44,3.86,3.86,0,0,0-1.13-1.75Zm3.59-2a23.31,23.31,0,0,0-3.71-3.72,46.69,46.69,0,0,0-5.31-4.94,1.73,1.73,0,0,0,.37,1.12c1.15,1.8,2.29,3.59,3.47,5.37a7,7,0,0,0,1.31,1.6,20.29,20.29,0,0,0,3.72,3.45c1.77,1.49,3.54,3,5.42,4.32l.13-.15q-2.42-3.13-4.82-6.29C98.75,56.43,98.58,56.16,98.37,55.92Zm6,11.54a16.39,16.39,0,0,0,3.73,2.67,55.82,55.82,0,0,0,5.91,3.4c0-.18,0-.28-.09-.33-2.06-1.76-4-3.67-5.93-5.54h0a23.14,23.14,0,0,0-3.44-3h0a74.57,74.57,0,0,0-6.64-4.88,11.39,11.39,0,0,0,2,2.85A34.81,34.81,0,0,0,104.33,67.46Zm14.53,8.72a59.44,59.44,0,0,0,7.38,3.26c0-.41-.33-.44-.54-.56a63.59,63.59,0,0,1-5.55-3.47,44.48,44.48,0,0,0-4.3-2.79l-5.27-3.49-.13.18a50.52,50.52,0,0,0,5.07,4.52A17.33,17.33,0,0,0,118.86,76.18Zm2.18,4a33.12,33.12,0,0,0,6.5,1.87l-5.44-2.93-.62-.38a.08.08,0,0,0-.1,0h0a43.88,43.88,0,0,0-5.7-3.42h0l-7-3.86-.12.18a2.16,2.16,0,0,0,.24.35,54.24,54.24,0,0,0,6.73,5.46A19.42,19.42,0,0,0,121,80.21Zm-5.82-10.69c-3.64-3.88-7.31-7.73-11.24-11.32A37.23,37.23,0,0,0,115.22,69.52Zm17.6,13.84a30.58,30.58,0,0,0,8,.72c-2.62-.49-5.17-1.18-7.71-1.92h0a2.41,2.41,0,0,0-.33-.15c-3.34-1.17-6.77-2.09-10-3.45a.75.75,0,0,0-.69,0A47.06,47.06,0,0,0,128.67,82,17.28,17.28,0,0,0,132.82,83.36ZM30.71,7.69a1.65,1.65,0,0,0,.45.83,9.45,9.45,0,0,0,4.62,2.84,22.6,22.6,0,0,0,2.68.86h0l2.81,1h0l3.31,1.26h0c.88.38,1.76.77,2.66,1.13a4.45,4.45,0,0,0,1.57.41c1,0,1.33-.32,1-1.3q-1-2.86-2.12-5.71A5,5,0,0,0,46,6.91c-.34-.27-.7-.52-1.05-.78a12.05,12.05,0,0,0-3.45-1.65,12,12,0,0,0-2.38-.9,19.54,19.54,0,0,0-3.14-1h0a19,19,0,0,0-4-1l-.15,0a3.87,3.87,0,0,0-2,0c-.93.23-1.09.55-.78,1.44C29.6,4.51,30.15,6.1,30.71,7.69ZM86.5,78.22c-.81-.76-1.69-1.45-2.54-2.18h0l-4.7-4.6a8.73,8.73,0,0,0-4.84-2.25h0a10.52,10.52,0,0,0-4.07-.11,40.67,40.67,0,0,0-4.92.54h0a17.17,17.17,0,0,0-3.12.48h0a20.37,20.37,0,0,0-3.28.61,10.15,10.15,0,0,0-2.72.68,5.55,5.55,0,0,0-2.65,2.08,2.49,2.49,0,0,0-.3,2.6,53.48,53.48,0,0,0,4.75,7.61h0c.31.44.62.88.92,1.33a3.73,3.73,0,0,0,3.28,1.65,7.69,7.69,0,0,0,3.13-.18h0a13.64,13.64,0,0,0,4.17-1.33h0l4.33-1.62h0l4.92-1.48h0l5.54-1.2a4.08,4.08,0,0,0,1.83-.56C87.24,79.74,87.35,79,86.5,78.22ZM97.27,53a13.53,13.53,0,0,0,2,2.48h0a67.09,67.09,0,0,0,6.54,6.18c-2.09-2.77-3.91-5.73-6.26-8.29L94,47.26a1,1,0,0,0,.26,1C95.22,49.83,96.23,51.44,97.27,53Zm50.6,31.51a47.92,47.92,0,0,0-5.22.17c-1.88,0-3.77,0-5.67-.07a23.34,23.34,0,0,0,5.67,1.11h0a4.42,4.42,0,0,0,1.53.2,23.69,23.69,0,0,0,4.21.15.6.6,0,0,0,.41,0,17.64,17.64,0,0,0,5.49-.9,24.32,24.32,0,0,0,5.61-1.92l-5.77.9ZM114.29,70.63c-1.11-1.1-2.25-2.18-3.35-3.28a40,40,0,0,0-2.85-2.83h0l-6.69-6.07-.19.19c.64.82,1.25,1.66,1.9,2.47a32.16,32.16,0,0,0,5,5.4A59.14,59.14,0,0,0,114.24,71c.14.1.28.27.51.23C114.77,70.9,114.46,70.8,114.29,70.63Zm23.15,14.81c-1.52-.44-3-.88-4.59-1.19l-.12,0a21,21,0,0,0-3.6-.86l-6.7-1.83-.09.23A42.73,42.73,0,0,0,129.09,85,19,19,0,0,0,133,86.32a14.88,14.88,0,0,0,4,.65,35.69,35.69,0,0,0,8-.22.73.73,0,0,0-.42-.21C142.17,86.3,139.8,85.89,137.44,85.44ZM1,9.11C1.5,9.08,2,9,2.53,9c1.52-.12,3.05-.28,4.55-.54l3.69-.32,4,0,3.42.14h0l3,.2h0a2.32,2.32,0,0,0,1.54,0h0a3.11,3.11,0,0,0,1.17-.14c1.17-.34,1.41-.76,1-1.88-.49-1.4-1-2.78-1.51-4.17A2.2,2.2,0,0,0,21.82.75h0A9.3,9.3,0,0,0,17,0h0a7.94,7.94,0,0,0-2.23.15L11.18.61a19.55,19.55,0,0,0-3.88.74h0A37.52,37.52,0,0,0,.65,3.29.76.76,0,0,0,.16,4c0,1.44,0,2.88,0,4.33A.77.77,0,0,0,1,9.11ZM134.34,82a.82.82,0,0,0,.57.26,37.26,37.26,0,0,0,7.75,1.5c.54,0,1.08.13,1.62.14a35.28,35.28,0,0,0,9.08-1.21.35.35,0,0,0,.37-.24,1.68,1.68,0,0,0-1,.1h0l-2.45.18a72.49,72.49,0,0,1-7.66,0c-2.42-.24-4.86-.26-7.28-.6A1.59,1.59,0,0,0,134.34,82ZM112,67.69a1.06,1.06,0,0,0,.44.61c.34.6.95.91,1.42,1.39a31.28,31.28,0,0,0,9.78,6.74l1.48.64c-1.43-1.06-2.9-2-4.32-3s-3-2.25-4.59-3.29c-1.23-.82-2.43-1.66-3.57-2.59A1.13,1.13,0,0,0,112,67.69Zm9.72,8.4.71.4a34.62,34.62,0,0,0,6.7,3.61A27,27,0,0,0,137.64,82a7.73,7.73,0,0,0-1.39-.44,67.64,67.64,0,0,1-6.95-2.36l-6.73-2.83A1,1,0,0,0,121.68,76.09Z"/><path class="cls-2" d="M242,46H230.8c-1.27-7.62-6.46-12.28-16.93-12.28-9.2,0-15.23,3.92-15.23,10.9,0,5.71,4.23,8.68,12,10.16l10,2c13.44,2.64,21.16,8.35,21.16,19.46,0,13.44-11,22.11-27.51,22.11-17.56,0-29.3-9.2-30.68-24.65h11.32c1.38,9.1,8.57,14.5,20,14.5,9.41,0,15.23-3.92,15.23-10.58,0-4.34-2.85-8.25-11.32-9.73L206.25,65.5c-13.43-2.54-19.67-9.41-19.67-20,0-13.12,10.57-21.58,26.55-21.58C226.35,23.93,240.32,29.43,242,46Z"/><path class="cls-2" d="M325.59,47.41,307.71,97.13h-9.63L286.44,62.65,274.7,97.13h-9.63L247.19,47.41H259l10.79,33.22,11.85-33.22h9.42L303,80.53l10.79-33.12Z"/><path class="cls-2" d="M335.74,31.74a6.74,6.74,0,0,1,7-6.77,6.78,6.78,0,1,1-7,6.77Zm12.49,15.67V97.13h-10.9V47.41Z"/><path class="cls-2" d="M382.82,47.41H402.5v9.21H382.82V97.13h-10.9V56.62H357.85V47.41h14.07V43.55c0-12.37,8.57-20,20.31-20a39.4,39.4,0,0,1,10.48,1.59l-1.59,9.31a27.59,27.59,0,0,0-7.62-1.38c-6.45,0-10.68,4-10.68,10.47Z"/><path class="cls-2" d="M442,96.39a31.59,31.59,0,0,1-11.32,2c-12.7,0-19.47-7.61-19.47-20.41V56.62H399.43V47.41h11.74V24.82h11V47.41h18.41v9.21H422.17V78c0,7.19,3.6,10.26,9.74,10.26a22.46,22.46,0,0,0,8.46-1.91Z"/><path class="cls-2" d="M501.3,97.13,481.1,70.05,460.79,97.13H447.56l25.82-35.65L448.2,25.19h13.85L481,52.38l18.94-27.19h13.86L488.61,61.48l25.92,35.65Z"/><path class="cls-2" d="M553,72.8H536.43V97.13H525V25.19h28.88C570,25.19,581.6,34.5,581.6,49c0,10.68-6.35,18.62-16.08,22l20.1,26.13h-14ZM536.43,62.33h17c9.63,0,16.93-5.08,16.93-13.33s-7.3-13.33-16.93-13.33h-17Z"/></g></g></svg>