<svg width="57" height="56" viewBox="0 0 57 56" fill="none" xmlns="http://www.w3.org/2000/svg">
<path d="M25.5 24H31.3793V25.3998H25.5V24ZM25.5 29.9913H31.3793V31.3352H25.5V29.9913ZM25.5 27.0797H31.3793V28.3115H25.5V27.0797Z" fill="black"/>
<path d="M24.5 27H31.7792V28.3438H24.5V27Z" fill="#262626"/>
<path d="M47.691 9H34.097V9.79673C34.097 12.8731 31.5739 15.3758 28.4976 15.3758C25.4212 15.3758 22.8982 12.8731 22.8982 9.79673V9H9.62222C8.53639 9 7.5 10.0237 7.5 11.1095V17.673C7.5 18.7589 8.53644 19.5268 9.62222 19.5268H13.2322C13.9562 19.5268 14.3312 20.2308 14.3312 20.9548V25.0142H10.2786C8.83092 25.0142 7.5 26.3989 7.5 27.8466V37.0356C7.5 38.4833 8.83097 39.5165 10.2786 39.5165H14.3312V43.9274C14.3312 45.375 15.7227 46.4598 17.1703 46.4598H40.1429C41.5905 46.4598 42.552 45.375 42.552 43.9274V20.9548C42.552 20.2308 43.357 19.5268 44.081 19.5268H47.691C48.7768 19.5268 49.4392 18.7588 49.4392 17.673V11.1095C49.4392 10.0237 48.7768 9 47.691 9ZM8.84379 17.6731V11.1095C8.84379 10.7477 9.26033 10.3439 9.62216 10.3439H10.6916V18.239H9.62222C9.26039 18.239 8.84379 18.0349 8.84379 17.6731ZM8.84379 37.0357V27.8467C8.84379 27.1227 9.55458 26.3581 10.2785 26.3581H20.7803C21.0052 26.3581 21.4062 26.5745 21.5895 26.7049L27.4547 30.939C27.9688 31.3059 28.2405 31.7981 28.2405 32.3204C28.2405 32.9531 27.8345 33.6172 27.1265 34.1229L21.5898 38.0517C21.4061 38.1825 21.0052 38.2847 20.7802 38.2847H10.2786C9.55458 38.2847 8.84379 37.7597 8.84379 37.0357ZM41.3202 20.9549V43.9274C41.3202 44.6514 40.8668 45.116 40.1429 45.116H17.1703C16.4463 45.116 15.6751 44.6514 15.6751 43.9274V39.5166H20.7804C21.2739 39.5166 21.9499 39.3725 22.3523 39.085L27.8894 35.166C28.947 34.4106 29.5534 33.3865 29.5534 32.3244C29.5534 31.3739 29.079 30.5207 28.2176 29.9058L22.352 25.6168C21.9498 25.3296 21.2739 25.0143 20.7803 25.0143H15.675V20.955C15.675 19.5073 14.6798 18.2391 13.2321 18.2391H12.0354V10.344H21.7959C22.1273 13.8716 25.0777 16.5794 28.6566 16.5794C32.2355 16.5794 35.1859 13.8716 35.5173 10.344H44.8478V18.2391H44.0811C42.6334 18.239 41.3202 19.5072 41.3202 20.9549ZM48.1514 17.6731C48.1514 18.0349 48.0528 18.239 47.691 18.239H46.2476V10.3439H47.691C48.0528 10.3439 48.1514 10.7476 48.1514 11.1095V17.6731Z" fill="#262626"/>
<path d="M23.2149 23.6254C23.2149 22.1778 22.0372 21 20.5895 21C19.1418 21 17.9641 22.1778 17.9641 23.6254C17.9641 25.0731 19.1418 26.2509 20.5895 26.2509C22.0372 26.2509 23.2149 25.0731 23.2149 23.6254ZM19.2768 23.6254C19.2768 22.9014 19.8655 22.3127 20.5895 22.3127C21.3135 22.3127 21.9022 22.9014 21.9022 23.6254C21.9022 24.3494 21.3135 24.9382 20.5895 24.9382C19.8655 24.9382 19.2768 24.3494 19.2768 23.6254ZM17.5 32.9966H39.1136V34.3404H17.5V32.9966Z" fill="#262626"/>
</svg>
