<svg width="57" height="56" viewBox="0 0 57 56" fill="none" xmlns="http://www.w3.org/2000/svg">
<path d="M47.1158 40.9974H10.6641C10.06 40.9974 9.57031 40.5076 9.57031 39.9037V10.5425C9.57031 9.93851 10.06 9.44873 10.6641 9.44873H47.1158C47.7198 9.44873 48.2095 9.93851 48.2095 10.5425V39.9037C48.2095 40.5076 47.7199 40.9974 47.1158 40.9974ZM11.7578 38.8099H46.022V11.6362H11.7578V38.8099Z" fill="#010101"/>
<path d="M28.89 21.3744C27.7105 21.3744 26.751 20.4148 26.751 19.2353C26.751 18.0558 27.7105 17.0962 28.89 17.0962C30.0694 17.0962 31.0291 18.0557 31.0291 19.2353C31.0291 20.4147 30.0695 21.3744 28.89 21.3744ZM28.89 19.1869C28.8633 19.1869 28.8416 19.2087 28.8416 19.2353C28.8416 19.262 28.8633 19.2837 28.89 19.2837C28.9167 19.2837 28.9384 19.262 28.9384 19.2353C28.9384 19.2087 28.9168 19.1869 28.89 19.1869Z" fill="#010101"/>
<path d="M28.6889 35.6713C27.5094 35.6713 26.5498 34.7117 26.5498 33.5322C26.5498 32.3527 27.5094 31.3931 28.6889 31.3931C29.8684 31.3931 30.828 32.3526 30.828 33.5322C30.8279 34.7116 29.8684 35.6713 28.6889 35.6713ZM28.6889 33.4838C28.6622 33.4838 28.6405 33.5055 28.6405 33.5322C28.6405 33.5589 28.6622 33.5806 28.6889 33.5806C28.7155 33.5806 28.7372 33.5589 28.7372 33.5322C28.7372 33.5055 28.7155 33.4838 28.6889 33.4838Z" fill="#010101"/>
<path d="M47.1158 26.7543H10.6641C10.06 26.7543 9.57031 26.2645 9.57031 25.6605V10.5425C9.57031 9.93851 10.06 9.44873 10.6641 9.44873H47.1158C47.7198 9.44873 48.2095 9.93851 48.2095 10.5425V25.6606C48.2095 26.2646 47.7199 26.7543 47.1158 26.7543ZM11.7578 24.5668H46.022V11.6362H11.7578V24.5668Z" fill="#010101"/>
<path d="M10.6641 46.5513C10.06 46.5513 9.57031 46.0615 9.57031 45.4575V39.9038C9.57031 39.2998 10.06 38.8101 10.6641 38.8101C11.2681 38.8101 11.7578 39.2998 11.7578 39.9038V45.4575C11.7578 46.0616 11.2681 46.5513 10.6641 46.5513Z" fill="#010101"/>
<path d="M47.1162 46.5508C46.5122 46.5508 46.0225 46.061 46.0225 45.4571V39.9033C46.0225 39.2994 46.5122 38.8096 47.1162 38.8096C47.7202 38.8096 48.21 39.2994 48.21 39.9033V45.4571C48.21 46.0611 47.7203 46.5508 47.1162 46.5508Z" fill="#010101"/>
<path d="M49.6094 11.6362H7.39062C6.78655 11.6362 6.29688 11.1464 6.29688 10.5425C6.29688 9.93851 6.78655 9.44873 7.39062 9.44873H49.6094C50.2133 9.44873 50.7031 9.93851 50.7031 10.5425C50.7031 11.1464 50.2133 11.6362 49.6094 11.6362Z" fill="#010101"/>
</svg>
